<svg xmlns="http://www.w3.org/2000/svg" width="11.139" height="13" viewBox="0 0 11.139 13">
  <g id="그룹_129" data-name="그룹 129" transform="translate(-423.372 -226.896)">
    <g id="그룹_128" data-name="그룹 128">
      <path id="패스_79" data-name="패스 79" d="M428.942,232.743a1.331,1.331,0,1,0,1.33,1.331A1.331,1.331,0,0,0,428.942,232.743Z" fill="#878788"/>
      <path id="패스_80" data-name="패스 80" d="M434.511,231.464H423.372v5.544h0v2.1a.794.794,0,0,0,.793.793h9.553a.794.794,0,0,0,.793-.793v-1.581h0Zm-5.569.6a2,2,0,1,1-2,2.005A2.006,2.006,0,0,1,428.942,232.069Z" fill="#878788"/>
    </g>
    <path id="패스_81" data-name="패스 81" d="M433.72,226.9h-9.555a.8.8,0,0,0-.793.793v3.242h11.139v-3.242A.794.794,0,0,0,433.72,226.9Z" fill="#878788"/>
  </g>
</svg>
