<svg xmlns="http://www.w3.org/2000/svg" width="147.436" height="172.088" viewBox="0 0 147.436 172.088">
  <g id="그룹_2" data-name="그룹 2" transform="translate(-224.166 -334.352)">
    <g id="그룹_1" data-name="그룹 1">
      <path id="패스_1" data-name="패스 1" d="M297.9,411.745a17.616,17.616,0,1,0,17.6,17.619A17.634,17.634,0,0,0,297.9,411.745Z" fill="#366bb3"/>
      <path id="패스_2" data-name="패스 2" d="M371.6,394.824H224.166V468.2h0v27.741a10.513,10.513,0,0,0,10.5,10.5H361.132a10.5,10.5,0,0,0,10.47-10.5V475h0Zm-73.7,8a26.536,26.536,0,1,1-26.526,26.538A26.547,26.547,0,0,1,297.9,402.826Z" fill="#366bb3"/>
    </g>
    <path id="패스_3" data-name="패스 3" d="M361.132,334.352H234.663a10.546,10.546,0,0,0-10.5,10.5v42.917H371.6V344.849A10.516,10.516,0,0,0,361.132,334.352Z" fill="#366bb3"/>
  </g>
</svg>
