<svg xmlns="http://www.w3.org/2000/svg" width="51.275" height="54.901" viewBox="0 0 51.275 54.901">
  <g id="그룹_315" data-name="그룹 315" transform="translate(-658.846 -1242.856)">
    <g id="그룹_46" data-name="그룹 46">
      <path id="패스_57" data-name="패스 57" d="M665.791,1297.757a1.66,1.66,0,0,1-1.627-1.989l1.916-9.424a25.406,25.406,0,0,1-7.234-17.85,25.621,25.621,0,1,1,17.15,24.2l-9.445,4.88A1.644,1.644,0,0,1,665.791,1297.757Zm3.7-11.545-1.387,6.823,7.018-3.625a1.645,1.645,0,0,1,1.355-.074,22.346,22.346,0,1,0-7.445-4.733A1.653,1.653,0,0,1,669.492,1286.212Z" fill="#f1ca2f"/>
    </g>
    <g id="그룹_47" data-name="그룹 47">
      <path id="패스_58" data-name="패스 58" d="M684.484,1283.107a16.456,16.456,0,0,1-15.394-10.738,1.658,1.658,0,1,1,3.113-1.145,13.086,13.086,0,0,0,24.561,0,1.659,1.659,0,0,1,3.115,1.145A16.46,16.46,0,0,1,684.484,1283.107Z" fill="#f1ca2f"/>
    </g>
    <path id="패스_59" data-name="패스 59" d="M688.115,1262.573a1.836,1.836,0,1,0,1.836-1.836A1.835,1.835,0,0,0,688.115,1262.573Z" fill="#f1ca2f"/>
    <g id="그룹_49" data-name="그룹 49">
      <path id="패스_60" data-name="패스 60" d="M677.18,1262.573a1.836,1.836,0,1,0,1.836-1.836A1.835,1.835,0,0,0,677.18,1262.573Z" fill="#f1ca2f"/>
    </g>
  </g>
</svg>
