<svg xmlns="http://www.w3.org/2000/svg" width="111.081" height="16" viewBox="0 0 111.081 16">
  <g id="그룹_238" data-name="그룹 238" transform="translate(-245.423 -155.571)">
    <g id="그룹_100" data-name="그룹 100">
      <g id="그룹_99" data-name="그룹 99">
        <path id="패스_18" data-name="패스 18" d="M249.381,170.58a7.393,7.393,0,0,1-2.9-2.753,8.012,8.012,0,0,1,0-7.955,7.393,7.393,0,0,1,2.9-2.753,8.616,8.616,0,0,1,4.147-.991,8.737,8.737,0,0,1,3.509.681,7.026,7.026,0,0,1,2.634,1.963l-2.218,2.048a4.767,4.767,0,0,0-3.753-1.748,4.984,4.984,0,0,0-2.475.606,4.331,4.331,0,0,0-1.7,1.7,5.359,5.359,0,0,0,0,4.951,4.371,4.371,0,0,0,1.7,1.7,5,5,0,0,0,2.475.606,4.746,4.746,0,0,0,3.753-1.771l2.218,2.048a6.91,6.91,0,0,1-2.643,1.983,8.786,8.786,0,0,1-3.521.684A8.583,8.583,0,0,1,249.381,170.58Z" fill="#717071"/>
        <path id="패스_19" data-name="패스 19" d="M261.464,156.383h3.456V168.5H272.4v2.817H261.464Z" fill="#717071"/>
        <path id="패스_20" data-name="패스 20" d="M285.375,168.542v2.773H273.813V156.383H285.1v2.773h-7.851V162.4h6.933v2.689h-6.933v3.455Z" fill="#717071"/>
        <path id="패스_21" data-name="패스 21" d="M290.592,170.566a7.42,7.42,0,0,1-2.924-2.76,7.946,7.946,0,0,1,0-7.913,7.437,7.437,0,0,1,2.924-2.764,9.253,9.253,0,0,1,8.372,0,7.615,7.615,0,0,1,0,13.437,9.22,9.22,0,0,1-8.372,0Zm6.579-2.545a4.41,4.41,0,0,0,1.675-1.7,5.359,5.359,0,0,0,0-4.951,4.369,4.369,0,0,0-1.675-1.7,5.012,5.012,0,0,0-4.778,0,4.356,4.356,0,0,0-1.675,1.7,5.336,5.336,0,0,0,0,4.951,4.4,4.4,0,0,0,1.675,1.7,5.012,5.012,0,0,0,4.778,0Z" fill="#717071"/>
        <path id="패스_22" data-name="패스 22" d="M317.163,170.494a7.346,7.346,0,0,1-2.848-2.741,7.879,7.879,0,0,1,0-7.807,7.311,7.311,0,0,1,2.848-2.741,8.816,8.816,0,0,1,8.126,0,7.254,7.254,0,0,1,2.836,2.73,7.984,7.984,0,0,1,0,7.827,7.272,7.272,0,0,1-2.836,2.732,8.817,8.817,0,0,1-8.126,0Zm7.029-1.654a5.47,5.47,0,0,0,2.066-2.057,6.039,6.039,0,0,0,0-5.866,5.487,5.487,0,0,0-2.066-2.061,5.876,5.876,0,0,0-2.955-.744,5.993,5.993,0,0,0-2.977.744,5.447,5.447,0,0,0-2.088,2.061,6.046,6.046,0,0,0,0,5.866,5.43,5.43,0,0,0,2.088,2.057,5.974,5.974,0,0,0,2.977.747A5.857,5.857,0,0,0,324.192,168.84Z" fill="#5588f4"/>
        <path id="패스_23" data-name="패스 23" d="M343.721,156.383v14.932h-1.749l-8.958-11.135v11.135h-2.133V156.383h1.75l8.957,11.136V156.383Z" fill="#717071"/>
        <path id="패스_24" data-name="패스 24" d="M356.5,169.458v1.857H345.668V156.383h10.538v1.855h-8.4v4.587h7.488v1.814H347.8v4.819Z" fill="#717071"/>
      </g>
    </g>
    <g id="그룹_101" data-name="그룹 101">
      <path id="패스_25" data-name="패스 25" d="M302.879,155.571h2.535v.318h-1.072v2.559h-.383v-2.559h-1.08Zm5.9,2.877-.008-2.219-1.187,1.865h-.171l-1.187-1.825v2.179h-.367v-2.877h.311l1.331,2.08,1.326-2.08h.3l.008,2.877Z" fill="#717071"/>
    </g>
  </g>
</svg>
